<svg xmlns="http://www.w3.org/2000/svg" id="Capa_1" data-name="Capa 1" viewBox="0 0 644.3 198.86"><path d="M124.93 144.58a49 49 0 0 1-19-3.69 47.51 47.51 0 0 1-29.59-44.34 46.3 46.3 0 0 1 3.82-18.82 47 47 0 0 1 10.6-15.2 48.5 48.5 0 0 1 15.88-10.13 52 52 0 0 1 19.48-3.62 53.1 53.1 0 0 1 21.77 4.34 44.6 44.6 0 0 1 16.26 12l-14.08 14.06a29.3 29.3 0 0 0-10.53-8.69 31.36 31.36 0 0 0-13.69-2.9 29.33 29.33 0 0 0-14.6 3.66 25.77 25.77 0 0 0-10.07 10.1 30.7 30.7 0 0 0-3.62 15.2 31.5 31.5 0 0 0 3.56 15.26 26.1 26.1 0 0 0 9.73 10.27 27.3 27.3 0 0 0 14.22 3.68 28.9 28.9 0 0 0 13.88-3.09 21.2 21.2 0 0 0 8.81-8.95 30.2 30.2 0 0 0 3.09-14.28l13.69 9.21-41.45-.66V90.5h48.82v3q0 16.71-6 28.1a40.5 40.5 0 0 1-16.57 17.19 50.1 50.1 0 0 1-24.41 5.79m86.07 0a32.65 32.65 0 0 1-15.6-3.62 26.65 26.65 0 0 1-10.59-10 28 28 0 0 1-3.82-14.71V79.18h20.13v36.84a13.2 13.2 0 0 0 1.12 5.66 8.2 8.2 0 0 0 3.36 3.68 10.44 10.44 0 0 0 5.4 1.32 9.24 9.24 0 0 0 7.1-2.83c1.75-1.89 2.63-4.49 2.63-7.83V79.18h20.13v37a28.35 28.35 0 0 1-3.81 14.81 26.9 26.9 0 0 1-10.53 10 32.2 32.2 0 0 1-15.52 3.59m52.63-74.22a10.35 10.35 0 0 1-7.83-3.23 11.54 11.54 0 0 1 0-15.72 10.47 10.47 0 0 1 7.83-3.16 10.27 10.27 0 0 1 7.76 3.16 11.71 11.71 0 0 1 0 15.72 10.15 10.15 0 0 1-7.76 3.23m-10.14 72.77V79.18h20.14v63.95zm28.95-46.88V79.18h49.09v17.07zm14.48 46.85V52.73h20.13v90.4zm68.82 1.35a29 29 0 0 1-15.73-4.34 31.06 31.06 0 0 1-10.92-11.86 35.64 35.64 0 0 1-4-17.11 35.6 35.6 0 0 1 4-17.1 31 31 0 0 1 10.92-11.79 29 29 0 0 1 15.73-4.34 26.5 26.5 0 0 1 11.65 2.5 22.65 22.65 0 0 1 8.48 6.91 18.56 18.56 0 0 1 3.69 10.07v27.63a18.9 18.9 0 0 1-3.62 10.07 22 22 0 0 1-8.49 6.91 27 27 0 0 1-11.71 2.45m4.08-18.2a13.45 13.45 0 0 0 10.39-4.28 15.36 15.36 0 0 0 4-10.86 16.9 16.9 0 0 0-1.78-7.89 13.1 13.1 0 0 0-5-5.33 15.43 15.43 0 0 0-14.87 0 14 14 0 0 0-5.22 5.36 17.33 17.33 0 0 0-.06 15.66 13.7 13.7 0 0 0 5.13 5.39 14 14 0 0 0 7.41 1.95m13.52 16.88v-17.24l3-15.52-3-15.53V79.18h19.75v63.95zm34 0V79.18h20.13v63.95zm20.13-35.14-8.42-6.58q2.51-11.18 8.42-17.37c4-4.12 9.43-6.18 16.45-6.18a21.9 21.9 0 0 1 8.1 1.38 16.3 16.3 0 0 1 6.11 4.28l-12 15.13a8.7 8.7 0 0 0-3.29-2.23 11.9 11.9 0 0 0-4.47-.79 10.5 10.5 0 0 0-8 3.09q-2.92 3.09-2.92 9.27zM76.34 196.6v-32h7.11v32zm13.3 0v-32h5l2.12 6.39v25.59zm22.06 0-18.84-24.14 1.77-7.84 18.84 24.14zm0 0-1.9-6.39v-25.59h7.11v32zm20.33.5a16.4 16.4 0 0 1-6.77-1.29 16 16 0 0 1-5.18-3.92l4.62-4.58a11.5 11.5 0 0 0 3.42 2.74 9.35 9.35 0 0 0 4.37 1 6.33 6.33 0 0 0 3.51-.82 2.56 2.56 0 0 0 1.24-2.26 2.88 2.88 0 0 0-.81-2.13 7.1 7.1 0 0 0-2.15-1.4c-.9-.4-1.88-.77-2.95-1.14s-2.13-.77-3.19-1.24a13.3 13.3 0 0 1-2.92-1.77 8 8 0 0 1-2.15-2.67 9 9 0 0 1 4.57-12.37 14.45 14.45 0 0 1 5.84-1.11 15.7 15.7 0 0 1 6.14 1.17 12.66 12.66 0 0 1 4.6 3.22l-4.62 4.57a11.1 11.1 0 0 0-2.92-2.22 7.5 7.5 0 0 0-3.33-.72 5.4 5.4 0 0 0-2.95.7 2.27 2.27 0 0 0-1.08 2 2.56 2.56 0 0 0 .81 2 7.1 7.1 0 0 0 2.15 1.29c.89.36 1.87.72 2.95 1.08s2.13.79 3.19 1.27a13.5 13.5 0 0 1 2.92 1.83 8.3 8.3 0 0 1 2.15 2.81 9.6 9.6 0 0 1 .82 4.19 8.69 8.69 0 0 1-3.26 7.18c-2.18 1.74-5.18 2.59-9.02 2.59m13.46-26.27v-6.21h27.13v6.21zm10 25.77v-31.52h7.11v31.52zm21.11 0v-32h7.11v32zm5.44-13.18v-5.25h6.74a4.65 4.65 0 0 0 3.29-1.09 4.26 4.26 0 0 0 0-5.8 4.44 4.44 0 0 0-3.26-1.13h-6.77v-5.53h7.6a12.35 12.35 0 0 1 5.58 1.2 9.37 9.37 0 0 1 3.76 3.33 9.59 9.59 0 0 1 0 9.81 9.14 9.14 0 0 1-3.81 3.28 13.06 13.06 0 0 1-5.75 1.18zm12 13.18-10-13.77 6.52-1.77 11.87 15.54zm24.23.5a14.06 14.06 0 0 1-7-1.68 12.14 12.14 0 0 1-4.71-4.64 13.4 13.4 0 0 1-1.69-6.77v-19.39h7.15v19.8a6.4 6.4 0 0 0 .82 3.3 5.46 5.46 0 0 0 2.24 2.15 6.66 6.66 0 0 0 3.15.75 6.46 6.46 0 0 0 3.17-.75 5.5 5.5 0 0 0 2.15-2.13 6.45 6.45 0 0 0 .79-3.28v-19.84h7.16v19.43a13.36 13.36 0 0 1-1.68 6.75 12 12 0 0 1-4.66 4.62 13.94 13.94 0 0 1-6.89 1.68m18.93-.5v-32h5.07l12.59 19.65h-2.58l12.55-19.61h5.11v32h-7.11v-20l1.27.31-8.2 12.77h-4.71l-8.15-12.77 1.22-.31v20zm38.86 0v-32h7.11v32zm5.43-25.86v-6.12h17.3v6.12zm0 12.5v-5.94h15.94v5.95zm0 13.36v-6.16h17.53v6.16zm22.42 0v-32h5l2.13 6.39v25.59zm22.06 0-18.85-24.14 1.77-7.84 18.84 24.14zm0 0-1.91-6.35v-25.63h7.11v32zm9.19-25.77v-6.21h27.18v6.21zm10 25.77v-31.52h7.11v31.52zm34.7.54a17.2 17.2 0 0 1-6.68-1.27 16.7 16.7 0 0 1-5.37-3.53 15.9 15.9 0 0 1-3.57-5.28 17.3 17.3 0 0 1 0-13 16.1 16.1 0 0 1 3.53-5.24 16.3 16.3 0 0 1 5.32-3.49 18.5 18.5 0 0 1 13.32 0 16.7 16.7 0 0 1 5.34 3.49 16 16 0 0 1 3.55 5.26 17.37 17.37 0 0 1 0 13 15.9 15.9 0 0 1-3.53 5.25 16.2 16.2 0 0 1-5.32 3.51 16.9 16.9 0 0 1-6.59 1.3m-.09-6.48a9.7 9.7 0 0 0 5-1.26 8.55 8.55 0 0 0 3.33-3.56 11.3 11.3 0 0 0 1.18-5.27 11.8 11.8 0 0 0-.68-4.1 9 9 0 0 0-1.95-3.17 8.5 8.5 0 0 0-3-2 10.2 10.2 0 0 0-3.87-.71 9.86 9.86 0 0 0-5 1.25 8.47 8.47 0 0 0-3.34 3.41 11.1 11.1 0 0 0-1.18 5.28 12 12 0 0 0 .68 4.12 9.3 9.3 0 0 0 1.92 3.19 8.4 8.4 0 0 0 3 2.06 10.2 10.2 0 0 0 3.91.76m30.21 6.44a16.35 16.35 0 0 1-6.77-1.29 15.9 15.9 0 0 1-5.19-3.92l4.62-4.58a11.6 11.6 0 0 0 3.42 2.74 9.35 9.35 0 0 0 4.37 1 6.33 6.33 0 0 0 3.51-.82 2.57 2.57 0 0 0 1.25-2.26 2.9 2.9 0 0 0-.82-2.13 7 7 0 0 0-2.15-1.4c-.89-.4-1.87-.77-2.95-1.14s-2.13-.77-3.19-1.24a13.3 13.3 0 0 1-2.92-1.77 8 8 0 0 1-2.15-2.67 9 9 0 0 1 4.57-12.37 14.5 14.5 0 0 1 5.85-1.11 15.65 15.65 0 0 1 6.13 1.17 12.66 12.66 0 0 1 4.6 3.22l-4.62 4.57a11.1 11.1 0 0 0-2.92-2.22 7.5 7.5 0 0 0-3.33-.72 5.33 5.33 0 0 0-2.94.7 2.25 2.25 0 0 0-1.09 2 2.56 2.56 0 0 0 .81 2 7.1 7.1 0 0 0 2.15 1.29c.9.36 1.88.72 2.95 1.08s2.14.79 3.19 1.27a13.5 13.5 0 0 1 2.92 1.83 8.3 8.3 0 0 1 2.15 2.81 9.6 9.6 0 0 1 .82 4.19 8.69 8.69 0 0 1-3.26 7.18q-3.27 2.59-9.01 2.59m24.77-9.02v-6.07h16v6.07zm45.33 9.02a17.4 17.4 0 0 1-6.63-1.25 16.13 16.13 0 0 1-8.9-8.79 17.24 17.24 0 0 1 0-13 15.9 15.9 0 0 1 3.53-5.24 16.4 16.4 0 0 1 5.32-3.46 18.9 18.9 0 0 1 13.41 0 16.4 16.4 0 0 1 5.19 3.35l-4.76 4.8a9.1 9.1 0 0 0-3.06-2.13 10.4 10.4 0 0 0-4.14-.77 10.1 10.1 0 0 0-3.83.7 8.4 8.4 0 0 0-3 2 9.4 9.4 0 0 0-1.95 3.17 12.36 12.36 0 0 0 0 8.2 9.5 9.5 0 0 0 1.95 3.17 8.7 8.7 0 0 0 3 2 9.8 9.8 0 0 0 3.83.73 10.9 10.9 0 0 0 4.26-.77 9.4 9.4 0 0 0 3.12-2.13l4.8 4.8a17.5 17.5 0 0 1-5.28 3.35 17.8 17.8 0 0 1-6.86 1.27m28.9 0a14 14 0 0 1-6.95-1.68 12 12 0 0 1-4.71-4.64 13.43 13.43 0 0 1-1.7-6.77v-19.39h7.16v19.8a6.5 6.5 0 0 0 .81 3.3 5.46 5.46 0 0 0 2.24 2.15 6.66 6.66 0 0 0 3.15.75 6.43 6.43 0 0 0 3.17-.75 5.44 5.44 0 0 0 2.15-2.13 6.45 6.45 0 0 0 .8-3.28v-19.84h7.15v19.43a13.36 13.36 0 0 1-1.68 6.75 12 12 0 0 1-4.66 4.62 13.9 13.9 0 0 1-6.93 1.68m18.93-.5v-32h7.11v32zm5.43-13.18v-5.25h6.74a4.65 4.65 0 0 0 3.29-1.09 4.26 4.26 0 0 0 0-5.8 4.44 4.44 0 0 0-3.26-1.13h-6.77v-5.53h7.6a12.35 12.35 0 0 1 5.58 1.2 9.27 9.27 0 0 1 3.75 3.33 9.53 9.53 0 0 1 0 9.81 9 9 0 0 1-3.8 3.28 13.06 13.06 0 0 1-5.75 1.18zm12 13.18-10-13.77 6.52-1.77 11.87 15.54zm20.3.5a16.35 16.35 0 0 1-6.77-1.29 15.9 15.9 0 0 1-5.19-3.92l4.62-4.58a11.6 11.6 0 0 0 3.42 2.74 9.35 9.35 0 0 0 4.37 1 6.33 6.33 0 0 0 3.51-.82 2.57 2.57 0 0 0 1.25-2.26 2.9 2.9 0 0 0-.82-2.13 7 7 0 0 0-2.15-1.4c-.89-.4-1.87-.77-2.95-1.14s-2.13-.77-3.19-1.24a13.3 13.3 0 0 1-2.92-1.77 8 8 0 0 1-2.15-2.67 9 9 0 0 1 4.57-12.37 14.5 14.5 0 0 1 5.85-1.11 15.65 15.65 0 0 1 6.13 1.17 12.66 12.66 0 0 1 4.6 3.22l-4.62 4.57a11.1 11.1 0 0 0-2.92-2.22 7.5 7.5 0 0 0-3.33-.72 5.33 5.33 0 0 0-2.94.7 2.25 2.25 0 0 0-1.09 2 2.56 2.56 0 0 0 .81 2 7.1 7.1 0 0 0 2.15 1.29c.9.36 1.88.72 3 1.08s2.14.79 3.19 1.27a13.5 13.5 0 0 1 2.92 1.83 8.3 8.3 0 0 1 2.15 2.81 9.6 9.6 0 0 1 .82 4.19 8.69 8.69 0 0 1-3.26 7.18q-3.36 2.59-9.06 2.59m32.33.04a17.2 17.2 0 0 1-6.68-1.27 16.6 16.6 0 0 1-5.36-3.53 15.9 15.9 0 0 1-3.58-5.28 17.3 17.3 0 0 1 0-13 16.1 16.1 0 0 1 3.53-5.24 16.3 16.3 0 0 1 5.32-3.49 18.5 18.5 0 0 1 13.32 0 16.6 16.6 0 0 1 5.34 3.49 16 16 0 0 1 3.56 5.26 17.37 17.37 0 0 1 0 13 16.22 16.22 0 0 1-8.86 8.76 16.9 16.9 0 0 1-6.59 1.3m-.09-6.48a9.76 9.76 0 0 0 5-1.26 8.67 8.67 0 0 0 3.33-3.56 11.4 11.4 0 0 0 1.17-5.27 11.6 11.6 0 0 0-.68-4.1 9.1 9.1 0 0 0-1.94-3.17 8.5 8.5 0 0 0-3-2 10.2 10.2 0 0 0-3.87-.71 9.8 9.8 0 0 0-5 1.25 8.43 8.43 0 0 0-3.33 3.49 11.1 11.1 0 0 0-1.18 5.28 12 12 0 0 0 .68 4.12 9.2 9.2 0 0 0 1.93 3.19 8.4 8.4 0 0 0 3 2.06 10.2 10.2 0 0 0 3.89.68m30.21 6.44a16.4 16.4 0 0 1-6.77-1.29 15.9 15.9 0 0 1-5.19-3.92l4.62-4.58a11.7 11.7 0 0 0 3.42 2.74 9.4 9.4 0 0 0 4.37 1 6.33 6.33 0 0 0 3.51-.82 2.57 2.57 0 0 0 1.29-2.28 2.85 2.85 0 0 0-.82-2.13 7 7 0 0 0-2.15-1.4c-.89-.4-1.87-.77-2.94-1.14s-2.14-.77-3.19-1.24a13.3 13.3 0 0 1-2.92-1.77 8 8 0 0 1-2.16-2.67 9 9 0 0 1 4.54-12.35 14.45 14.45 0 0 1 5.84-1.11 15.7 15.7 0 0 1 6.14 1.17 12.6 12.6 0 0 1 4.59 3.22l-4.62 4.57a11 11 0 0 0-2.92-2.22 7.5 7.5 0 0 0-3.33-.72 5.4 5.4 0 0 0-2.94.7 2.25 2.25 0 0 0-1.09 2 2.54 2.54 0 0 0 .82 2 7 7 0 0 0 2.15 1.29q1.34.54 2.94 1.08c1.07.37 2.14.79 3.2 1.27a13.8 13.8 0 0 1 2.92 1.83 8.3 8.3 0 0 1 2.15 2.81 9.75 9.75 0 0 1 .81 4.19 8.66 8.66 0 0 1-3.26 7.18q-3.25 2.59-9.01 2.59M9.66 106.25c-3-.05-5.7 4.71-5.37 12 .39 8.57 6.43 17.27 6.43 25.55 0 7.09-10.81 14.78-10.71 29.35.1 16.6 8.4 25.71 31.15 25.71s28.32-10.87 28.32-25c0-13-8.38-17.35-8.38-27.07 0-10.22 5.42-14.88 6.43-20.6 1.19-6.77-2.56-9.85-5.33-8.78-2.46 1-1.34 7.37-9.92 7.55-4.12.09-7.16-3.77-7.16-13.33s-9.64-10.6-10.22-1.22c-.18 2.78-1.06 8.14-6.81 8.17-6.4.01-4.61-12.22-8.43-12.33"/><path d="M24.62 124.69h10.65l-1.85-89.64h-6.96z"/><path d="M40.58 25.87a62 62 0 0 1 .76-17.27c1.67-8.41-.47-13.15-5.12-2.27L25.08 32.45c-.44 1-1.17 1.46.31 3.55a4.7 4.7 0 0 1 1 2.35h7.09c0-1.18 1.37-4.32 3.87-6.42 1.54-1.3 3.39-4.22 3.23-6.06"/><path d="m33.02 9.576.393-.92 3.107 1.33-.393.92z"/><path d="m32.97 10.63-1.08-.46c-.85-.76 0-2.71 1.13-2.63l1.07.46c.47.6-.37 2.56-1.12 2.63m-1.757 3.168.394-.92 3.107 1.33-.393.92z"/><path d="m31.16 14.86-1.08-.47c-.85-.76 0-2.71 1.13-2.63l1.13.49c.41.57-.43 2.53-1.18 2.61m-1.75 3.162.394-.919 3.107 1.33-.393.92z"/><path d="m29.34 19.08-1.07-.46c-.85-.76 0-2.72 1.12-2.63l1.08.46c.48.59-.36 2.55-1.13 2.63m-1.747 3.159.393-.92 3.107 1.33-.393.919z"/><path d="m27.55 23.3-1.08-.46c-.85-.76 0-2.72 1.13-2.63l1.07.46c.47.58-.33 2.58-1.12 2.63m-1.747 3.157.393-.919 3.108 1.33-.394.92z"/><path d="m25.74 27.52-1.08-.46c-.85-.76 0-2.72 1.13-2.63l1.08.46c.47.59-.38 2.56-1.13 2.63m-1.75 3.162.394-.92 3.107 1.33-.393.92z"/><path d="m23.94 31.74-1.08-.49c-.85-.76 0-2.72 1.12-2.63l1.08.46c.47.63-.37 2.59-1.12 2.66"/><path fill="#d88506" d="M480.34 142.87V49.18h26.31v93.69zm21.45 0V120.5h43.82v22.37zm44.74 0 35.67-93.69h26.84l35.3 93.69h-27.4l-26.19-79.62h9.47l-26.88 79.62zm23.17-15.79v-20.53h52.37v20.53z"/></svg>