<svg version="1.2" xmlns="http://www.w3.org/2000/svg" viewBox="0 0 645 199" width="645" height="199">
	<style>
		.s0 { fill: #ffffff99 } 
		.s1 { fill: #da8603 } 
	</style>
	<path class="s0" d="m124.93 144.58q-2.44 0.02-4.86-0.21-2.43-0.22-4.82-0.69-2.4-0.46-4.73-1.16-2.34-0.7-4.59-1.63c-4.38-1.78-8.46-4.21-12.12-7.19-3.66-2.99-6.86-6.51-9.48-10.44-2.62-3.93-4.64-8.23-6-12.76-1.35-4.52-2.02-9.23-1.99-13.95q-0.02-2.42 0.21-4.83 0.23-2.41 0.71-4.78 0.49-2.37 1.21-4.68 0.73-2.31 1.69-4.53 0.93-2.14 2.07-4.18 1.14-2.03 2.47-3.95 1.34-1.91 2.86-3.68 1.51-1.78 3.2-3.39 1.71-1.64 3.58-3.1 1.86-1.47 3.86-2.74 2-1.28 4.12-2.35 2.11-1.08 4.32-1.94 2.32-0.91 4.72-1.6 2.39-0.69 4.85-1.15 2.45-0.45 4.93-0.67 2.49-0.22 4.98-0.2 2.8-0.04 5.58 0.22 2.79 0.25 5.53 0.8 2.75 0.55 5.42 1.38 2.67 0.83 5.24 1.94 2.34 1.01 4.55 2.28 2.22 1.27 4.27 2.79 2.05 1.51 3.92 3.25 1.86 1.74 3.52 3.68l-14.08 14.06q-1.04-1.38-2.23-2.62-1.19-1.25-2.52-2.35-1.33-1.09-2.78-2.03-1.45-0.93-3-1.69-1.6-0.74-3.28-1.3-1.67-0.56-3.4-0.92-1.73-0.37-3.49-0.54-1.75-0.17-3.52-0.14-1.91-0.03-3.8 0.19-1.89 0.22-3.74 0.69-1.85 0.46-3.62 1.16-1.77 0.7-3.44 1.62-1.58 0.88-3.03 1.97-1.44 1.09-2.72 2.37-1.28 1.28-2.36 2.73-1.09 1.45-1.96 3.03-0.93 1.74-1.63 3.59-0.7 1.85-1.16 3.78-0.46 1.92-0.67 3.89-0.21 1.96-0.16 3.94-0.04 1.98 0.16 3.95 0.21 1.97 0.66 3.9 0.45 1.94 1.14 3.79 0.68 1.86 1.6 3.62 0.83 1.59 1.88 3.05 1.04 1.45 2.28 2.76 1.23 1.3 2.63 2.42 1.4 1.12 2.94 2.04 1.61 0.93 3.33 1.64 1.73 0.71 3.53 1.17 1.8 0.47 3.65 0.69 1.85 0.22 3.71 0.18 1.8 0.05 3.59-0.12 1.79-0.17 3.54-0.56 1.76-0.39 3.45-0.99 1.69-0.61 3.3-1.42 1.41-0.76 2.68-1.71 1.28-0.96 2.4-2.1 1.12-1.14 2.06-2.43 0.94-1.29 1.67-2.71 0.82-1.66 1.42-3.4 0.61-1.75 1-3.55 0.39-1.81 0.56-3.64 0.17-1.84 0.11-3.69l13.69 9.21-41.45-0.66v-17.49h48.82v3q0 16.71-6 28.1-1.37 2.71-3.13 5.18-1.75 2.48-3.86 4.66-2.11 2.19-4.51 4.04-2.41 1.84-5.07 3.31-2.81 1.48-5.78 2.6-2.97 1.11-6.06 1.85-3.08 0.73-6.24 1.07-3.16 0.33-6.33 0.27zm86.07 0q-2.02 0.04-4.04-0.17-2.01-0.21-3.99-0.67-1.97-0.46-3.87-1.15-1.9-0.7-3.7-1.63-1.64-0.85-3.14-1.92-1.51-1.07-2.85-2.34-1.34-1.27-2.5-2.71-1.15-1.44-2.1-3.03-0.97-1.66-1.71-3.44-0.73-1.79-1.22-3.65-0.48-1.87-0.71-3.78-0.22-1.91-0.18-3.84v-37.07h20.13v36.84q-0.02 0.73 0.04 1.45 0.07 0.73 0.21 1.44 0.14 0.72 0.36 1.41 0.22 0.69 0.51 1.36 0.27 0.58 0.62 1.1 0.35 0.53 0.77 1 0.43 0.47 0.93 0.87 0.49 0.39 1.04 0.71 0.62 0.34 1.27 0.6 0.66 0.26 1.34 0.43 0.68 0.16 1.39 0.24 0.7 0.07 1.4 0.05 0.99 0.05 1.96-0.12 0.98-0.16 1.9-0.53 0.91-0.36 1.73-0.91 0.83-0.56 1.51-1.27 2.63-2.83 2.63-7.83v-36.84h20.13v37q0.04 1.94-0.18 3.86-0.22 1.93-0.71 3.81-0.48 1.87-1.21 3.67-0.74 1.79-1.71 3.47-0.94 1.58-2.09 3.02-1.15 1.44-2.49 2.7-1.33 1.27-2.83 2.35-1.49 1.07-3.12 1.93-1.79 0.93-3.68 1.62-1.89 0.7-3.85 1.15-1.97 0.45-3.97 0.66-2.01 0.21-4.02 0.16zm52.63-74.22q-1.09 0.03-2.17-0.16-1.08-0.2-2.09-0.62-1.01-0.42-1.91-1.03-0.91-0.63-1.66-1.42c-0.98-1.06-1.76-2.29-2.29-3.64-0.53-1.34-0.8-2.77-0.8-4.22 0-1.45 0.27-2.88 0.8-4.22 0.53-1.35 1.31-2.58 2.29-3.64q0.76-0.78 1.67-1.39 0.9-0.61 1.91-1.01 1.01-0.41 2.09-0.6 1.07-0.19 2.16-0.16 1.08-0.04 2.15 0.15 1.06 0.19 2.07 0.6 1 0.41 1.9 1.02 0.89 0.61 1.64 1.39c0.97 1.07 1.73 2.3 2.25 3.65 0.51 1.34 0.78 2.77 0.78 4.21 0 1.44-0.27 2.87-0.78 4.21-0.52 1.35-1.28 2.58-2.25 3.65q-0.74 0.8-1.63 1.42-0.9 0.62-1.9 1.04-1 0.41-2.07 0.61-1.07 0.19-2.16 0.16zm-10.14 72.77v-63.95h20.14v63.95zm28.95-46.88v-17.07h49.09v17.07zm14.48 46.85v-90.37h20.13v90.4zm68.82 1.35q-2.07 0.03-4.13-0.23-2.05-0.26-4.05-0.81-1.99-0.55-3.89-1.38-1.9-0.83-3.66-1.92-1.73-1.09-3.29-2.4-1.57-1.31-2.95-2.81-1.39-1.5-2.56-3.17-1.17-1.67-2.12-3.48-1.02-1.97-1.79-4.06-0.77-2.08-1.28-4.24-0.51-2.17-0.74-4.38-0.23-2.21-0.19-4.43-0.04-2.22 0.19-4.43 0.23-2.21 0.74-4.37 0.51-2.16 1.28-4.25 0.77-2.08 1.79-4.05 0.95-1.8 2.12-3.46 1.18-1.66 2.56-3.15 1.39-1.5 2.95-2.8 1.57-1.3 3.29-2.38 1.76-1.09 3.66-1.92 1.9-0.83 3.89-1.38 2-0.55 4.05-0.81 2.06-0.26 4.13-0.23 1.5-0.02 3 0.12 1.5 0.15 2.97 0.47 1.47 0.31 2.89 0.79 1.43 0.48 2.79 1.12 1.25 0.59 2.42 1.33 1.17 0.73 2.24 1.61 1.08 0.87 2.03 1.87 0.96 0.99 1.79 2.1 0.82 1.09 1.47 2.29 0.65 1.19 1.12 2.47 0.47 1.28 0.74 2.62 0.28 1.33 0.36 2.69v27.63q-0.08 1.36-0.35 2.69-0.27 1.33-0.73 2.61-0.46 1.27-1.1 2.47-0.64 1.2-1.44 2.3-0.82 1.11-1.78 2.12-0.95 1-2.03 1.87-1.07 0.88-2.25 1.61-1.17 0.73-2.43 1.31-1.37 0.63-2.81 1.1-1.43 0.47-2.91 0.78-1.48 0.31-2.98 0.45-1.5 0.15-3.01 0.12zm4.08-18.2q1.45 0.06 2.89-0.2 1.43-0.25 2.77-0.8 1.35-0.56 2.54-1.39 1.2-0.83 2.19-1.89 1-1.1 1.78-2.37 0.77-1.27 1.28-2.67 0.52-1.4 0.75-2.86 0.24-1.47 0.19-2.96 0.02-1.02-0.08-2.04-0.11-1.02-0.33-2.01-0.23-1-0.57-1.96-0.34-0.97-0.8-1.88-0.42-0.83-0.95-1.59-0.54-0.75-1.17-1.43-0.64-0.68-1.36-1.26-0.72-0.58-1.52-1.05-1.71-0.94-3.6-1.42-1.89-0.49-3.84-0.49-1.94 0-3.83 0.49-1.89 0.48-3.6 1.42-0.82 0.48-1.57 1.06-0.74 0.59-1.4 1.26-0.67 0.68-1.23 1.45-0.56 0.76-1.02 1.59-0.93 1.82-1.41 3.8-0.48 1.98-0.49 4.02-0.01 2.04 0.46 4.03 0.47 1.99 1.38 3.81 0.44 0.83 0.99 1.6 0.55 0.77 1.2 1.45 0.65 0.68 1.39 1.27 0.74 0.59 1.55 1.07 0.84 0.49 1.73 0.87 0.9 0.37 1.84 0.62 0.94 0.25 1.9 0.36 0.97 0.12 1.94 0.1zm13.52 16.88v-17.24l3-15.52-3-15.53v-15.66h19.75v63.95zm34 0v-63.95h20.13v63.95zm20.13-35.14l-8.42-6.58q2.51-11.18 8.42-17.37c4-4.12 9.43-6.18 16.45-6.18q1.03-0.02 2.06 0.06 1.04 0.07 2.06 0.25 1.01 0.17 2.01 0.44 1 0.27 1.97 0.63 0.87 0.35 1.7 0.8 0.83 0.45 1.6 0.99 0.77 0.54 1.48 1.16 0.7 0.63 1.33 1.33l-12 15.13q-0.34-0.37-0.72-0.7-0.38-0.32-0.8-0.61-0.41-0.28-0.86-0.51-0.44-0.23-0.91-0.41-0.53-0.2-1.08-0.36-0.55-0.15-1.12-0.25-0.56-0.1-1.13-0.14-0.57-0.05-1.14-0.04-1.11-0.06-2.2 0.12-1.1 0.17-2.13 0.57-1.03 0.4-1.96 1.01-0.93 0.6-1.71 1.39-2.92 3.09-2.92 9.27zm-361.13 88.61v-32h7.11v32zm13.3 0v-32h5l2.12 6.39v25.59zm22.06 0l-18.84-24.14 1.77-7.84 18.84 24.14zm0 0l-1.9-6.39v-25.59h7.11v32zm20.33 0.5q-0.87 0.02-1.73-0.05-0.87-0.07-1.72-0.24-0.86-0.16-1.69-0.41-0.83-0.25-1.63-0.59-0.74-0.35-1.44-0.78-0.7-0.42-1.35-0.91-0.65-0.5-1.25-1.06-0.6-0.55-1.14-1.17l4.62-4.58q0.36 0.42 0.75 0.81 0.4 0.38 0.83 0.72 0.43 0.35 0.89 0.65 0.46 0.3 0.95 0.56 0.51 0.26 1.04 0.45 0.53 0.19 1.08 0.32 0.56 0.12 1.12 0.18 0.56 0.06 1.13 0.05 0.46 0.03 0.91-0.01 0.46-0.04 0.9-0.14 0.45-0.11 0.88-0.28 0.42-0.16 0.82-0.39 0.29-0.18 0.53-0.42 0.23-0.24 0.4-0.54 0.16-0.3 0.24-0.63 0.08-0.33 0.07-0.67 0.01-0.29-0.03-0.58-0.05-0.29-0.16-0.57-0.1-0.27-0.26-0.52-0.16-0.25-0.36-0.46-0.23-0.22-0.49-0.42-0.25-0.2-0.52-0.38-0.27-0.17-0.56-0.32-0.28-0.16-0.58-0.28-1.35-0.59-2.95-1.14-1.6-0.54-3.19-1.24-0.39-0.17-0.77-0.37-0.38-0.2-0.75-0.42-0.36-0.22-0.71-0.47-0.36-0.24-0.69-0.51-0.34-0.27-0.64-0.58-0.31-0.3-0.58-0.64-0.27-0.34-0.5-0.7-0.24-0.36-0.43-0.75c-0.56-1.1-0.88-2.31-0.95-3.55-0.07-1.23 0.11-2.47 0.54-3.63 0.43-1.16 1.09-2.22 1.95-3.11 0.86-0.9 1.89-1.6 3.03-2.08q0.69-0.29 1.41-0.5 0.72-0.22 1.45-0.36 0.74-0.14 1.48-0.2 0.75-0.06 1.5-0.05 0.79-0.01 1.57 0.06 0.79 0.07 1.56 0.22 0.77 0.14 1.53 0.37 0.75 0.22 1.48 0.52 0.66 0.27 1.28 0.61 0.62 0.34 1.2 0.74 0.58 0.41 1.11 0.88 0.53 0.47 1.01 0.99l-4.62 4.57q-0.32-0.34-0.66-0.64-0.34-0.31-0.71-0.59-0.36-0.28-0.75-0.53-0.39-0.25-0.8-0.46-0.39-0.18-0.8-0.32-0.4-0.14-0.82-0.23-0.42-0.09-0.85-0.13-0.43-0.05-0.86-0.04-0.38-0.02-0.77 0.02-0.38 0.03-0.76 0.12-0.37 0.09-0.73 0.23-0.36 0.14-0.69 0.33-0.25 0.16-0.46 0.37-0.21 0.22-0.35 0.49-0.14 0.26-0.21 0.55-0.07 0.29-0.06 0.59-0.01 0.28 0.03 0.55 0.05 0.28 0.15 0.54 0.11 0.26 0.27 0.49 0.16 0.23 0.36 0.42 0.24 0.21 0.49 0.39 0.26 0.19 0.53 0.35 0.27 0.16 0.55 0.3 0.29 0.14 0.58 0.25 1.33 0.54 2.95 1.08 1.61 0.54 3.19 1.27 0.39 0.18 0.77 0.39 0.38 0.2 0.75 0.43 0.36 0.23 0.72 0.48 0.35 0.26 0.68 0.53 0.34 0.29 0.65 0.61 0.31 0.32 0.58 0.68 0.27 0.35 0.5 0.73 0.23 0.39 0.42 0.79 0.22 0.49 0.38 1.01 0.16 0.51 0.27 1.04 0.1 0.53 0.14 1.06 0.05 0.54 0.03 1.08 0.05 1.03-0.15 2.04-0.19 1.01-0.62 1.94-0.42 0.94-1.06 1.75-0.63 0.81-1.43 1.45-3.27 2.6-9.02 2.59zm13.46-26.27v-6.21h27.13v6.21zm10 25.77v-31.52h7.11v31.52zm21.11 0v-32h7.11v32zm5.44-13.18v-5.25h6.74q0.44 0.03 0.89-0.03 0.44-0.06 0.86-0.2 0.42-0.14 0.81-0.35 0.39-0.22 0.73-0.51 0.55-0.59 0.84-1.34 0.3-0.75 0.3-1.56 0-0.81-0.3-1.56-0.29-0.75-0.84-1.34-0.33-0.3-0.71-0.52-0.39-0.23-0.81-0.37-0.42-0.15-0.86-0.21-0.44-0.06-0.88-0.03h-6.77v-5.53h7.6q0.72-0.02 1.44 0.05 0.72 0.07 1.42 0.22 0.7 0.15 1.39 0.39 0.68 0.23 1.33 0.54 0.57 0.28 1.1 0.63 0.53 0.36 1.01 0.78 0.47 0.42 0.89 0.9 0.41 0.49 0.76 1.02 0.66 1.11 1.01 2.36 0.34 1.25 0.34 2.55 0 1.29-0.34 2.54-0.35 1.25-1.01 2.36-0.35 0.53-0.77 1.01-0.42 0.48-0.91 0.9-0.48 0.41-1.01 0.76-0.54 0.34-1.12 0.61-0.67 0.31-1.38 0.54-0.7 0.23-1.43 0.38-0.72 0.15-1.46 0.21-0.74 0.07-1.48 0.05zm12 13.18l-10-13.77 6.52-1.77 11.87 15.54zm24.23 0.5q-0.91 0.02-1.82-0.08-0.9-0.09-1.79-0.3-0.89-0.22-1.74-0.54-0.85-0.33-1.65-0.76-0.73-0.4-1.41-0.9-0.67-0.5-1.27-1.09-0.59-0.59-1.1-1.26-0.52-0.66-0.93-1.39-0.43-0.77-0.75-1.59-0.33-0.83-0.54-1.68-0.22-0.86-0.32-1.74-0.1-0.88-0.08-1.76v-19.39h7.15v19.8q-0.01 0.43 0.04 0.86 0.04 0.43 0.15 0.85 0.1 0.41 0.26 0.81 0.16 0.4 0.37 0.78 0.2 0.34 0.44 0.65 0.24 0.31 0.52 0.59 0.29 0.27 0.61 0.5 0.32 0.23 0.67 0.41 0.36 0.19 0.75 0.33 0.38 0.14 0.78 0.24 0.4 0.09 0.8 0.14 0.41 0.04 0.82 0.04 0.41 0.01 0.82-0.03 0.41-0.05 0.81-0.14 0.4-0.1 0.79-0.24 0.39-0.15 0.75-0.34 0.34-0.18 0.64-0.41 0.31-0.23 0.58-0.5 0.28-0.27 0.51-0.58 0.23-0.31 0.42-0.64 0.21-0.37 0.36-0.77 0.15-0.4 0.25-0.82 0.1-0.41 0.15-0.84 0.04-0.42 0.03-0.85v-19.84h7.16v19.43q0.02 0.88-0.08 1.76-0.1 0.87-0.31 1.73-0.22 0.85-0.54 1.67-0.32 0.82-0.75 1.59-0.41 0.73-0.91 1.39-0.51 0.66-1.1 1.24-0.59 0.59-1.26 1.09-0.66 0.5-1.39 0.9-0.79 0.43-1.63 0.75-0.83 0.32-1.71 0.54-0.87 0.21-1.76 0.31-0.89 0.1-1.79 0.08zm18.93-0.5v-32h5.07l12.59 19.65h-2.58l12.55-19.61h5.11v32h-7.11v-20l1.27 0.31-8.2 12.77h-4.71l-8.15-12.77 1.22-0.31v20zm38.86 0v-32h7.11v32zm5.43-25.86v-6.12h17.3v6.12zm0 12.5v-5.94h15.94v5.95zm0 13.36v-6.16h17.53v6.16zm22.42 0v-32h5l2.13 6.39v25.59zm22.06 0l-18.85-24.14 1.77-7.84 18.84 24.14zm0 0l-1.91-6.35v-25.63h7.11v32zm9.19-25.77v-6.21h27.18v6.21zm10 25.77v-31.52h7.11v31.52zm34.7 0.54q-0.86 0.01-1.71-0.07-0.85-0.07-1.69-0.23-0.84-0.16-1.67-0.4-0.82-0.25-1.61-0.57-0.75-0.31-1.46-0.68-0.72-0.38-1.4-0.82-0.67-0.45-1.3-0.96-0.63-0.5-1.21-1.07-0.57-0.56-1.09-1.18-0.51-0.61-0.96-1.28-0.45-0.66-0.83-1.37-0.38-0.71-0.69-1.45-0.63-1.55-0.95-3.19-0.32-1.64-0.32-3.31 0-1.67 0.32-3.31 0.32-1.64 0.95-3.19 0.31-0.73 0.68-1.43 0.38-0.71 0.83-1.36 0.44-0.66 0.95-1.28 0.5-0.61 1.07-1.17 0.57-0.56 1.19-1.06 0.63-0.51 1.3-0.95 0.67-0.44 1.38-0.81 0.71-0.37 1.45-0.67 1.59-0.61 3.27-0.93 1.68-0.31 3.39-0.31 1.71 0 3.39 0.31 1.68 0.32 3.27 0.93 0.74 0.3 1.45 0.68 0.72 0.37 1.39 0.81 0.67 0.44 1.3 0.94 0.62 0.5 1.2 1.06 0.57 0.56 1.08 1.18 0.51 0.61 0.96 1.27 0.45 0.66 0.82 1.37 0.38 0.7 0.69 1.44 0.62 1.55 0.94 3.19 0.32 1.64 0.32 3.31 0 1.67-0.32 3.31-0.32 1.64-0.94 3.19-0.3 0.74-0.68 1.44-0.38 0.7-0.82 1.36-0.45 0.66-0.95 1.28-0.51 0.61-1.08 1.17-0.57 0.57-1.19 1.07-0.63 0.51-1.3 0.95-0.67 0.44-1.38 0.81-0.71 0.38-1.45 0.68-0.78 0.33-1.59 0.57-0.81 0.25-1.64 0.41-0.83 0.16-1.67 0.24-0.84 0.08-1.69 0.08zm-0.09-6.48q0.65 0.01 1.3-0.06 0.65-0.07 1.29-0.23 0.63-0.16 1.24-0.4 0.6-0.25 1.17-0.57 0.53-0.31 1.02-0.7 0.48-0.39 0.9-0.84 0.43-0.45 0.78-0.96 0.35-0.51 0.63-1.06 0.3-0.61 0.53-1.25 0.23-0.65 0.38-1.31 0.15-0.67 0.22-1.35 0.06-0.68 0.05-1.36 0.01-0.52-0.03-1.04-0.04-0.52-0.13-1.04-0.08-0.52-0.21-1.02-0.14-0.51-0.31-1-0.16-0.44-0.36-0.86-0.2-0.43-0.45-0.83-0.25-0.4-0.53-0.77-0.29-0.37-0.61-0.71-0.32-0.33-0.67-0.62-0.34-0.29-0.72-0.54-0.38-0.25-0.78-0.46-0.41-0.21-0.83-0.38-0.46-0.18-0.94-0.32-0.47-0.13-0.96-0.22-0.49-0.09-0.98-0.13-0.49-0.05-0.99-0.04-0.65-0.01-1.3 0.06-0.65 0.07-1.28 0.23-0.64 0.16-1.24 0.4-0.61 0.24-1.18 0.56-0.53 0.3-1.01 0.66-0.48 0.37-0.91 0.8-0.42 0.44-0.78 0.93-0.36 0.49-0.64 1.02-0.31 0.61-0.54 1.26-0.23 0.64-0.38 1.31-0.15 0.66-0.21 1.35-0.07 0.68-0.05 1.36-0.01 0.52 0.03 1.05 0.04 0.52 0.13 1.04 0.08 0.52 0.22 1.03 0.13 0.5 0.3 1 0.16 0.44 0.36 0.87 0.2 0.42 0.44 0.82 0.24 0.4 0.52 0.78 0.28 0.37 0.6 0.72 0.31 0.34 0.66 0.64 0.35 0.29 0.73 0.55 0.38 0.26 0.78 0.48 0.4 0.22 0.83 0.39 0.46 0.19 0.94 0.33 0.49 0.15 0.98 0.24 0.49 0.1 0.99 0.15 0.5 0.04 1 0.04zm30.21 6.44q-0.87 0.02-1.73-0.05-0.87-0.07-1.72-0.23-0.86-0.17-1.69-0.42-0.83-0.25-1.63-0.59-0.74-0.35-1.44-0.77-0.7-0.43-1.36-0.92-0.65-0.5-1.25-1.05-0.6-0.56-1.14-1.18l4.62-4.58q0.36 0.42 0.75 0.8 0.4 0.39 0.83 0.73 0.43 0.35 0.89 0.65 0.46 0.3 0.95 0.56 0.51 0.26 1.04 0.45 0.53 0.19 1.08 0.32 0.56 0.12 1.12 0.18 0.56 0.06 1.13 0.05 0.46 0.03 0.91-0.01 0.46-0.04 0.9-0.14 0.45-0.11 0.88-0.28 0.42-0.16 0.82-0.39 0.29-0.17 0.53-0.42 0.23-0.24 0.4-0.54 0.16-0.3 0.25-0.63 0.08-0.33 0.07-0.67 0.01-0.29-0.04-0.58-0.05-0.29-0.15-0.57-0.11-0.27-0.27-0.52-0.15-0.25-0.36-0.46-0.23-0.22-0.49-0.42-0.25-0.2-0.52-0.38-0.27-0.18-0.56-0.33-0.28-0.15-0.58-0.27-1.33-0.59-2.95-1.14-1.61-0.54-3.19-1.24-0.39-0.17-0.77-0.37-0.38-0.2-0.75-0.42-0.36-0.22-0.71-0.47-0.36-0.24-0.69-0.51-0.34-0.27-0.64-0.58-0.31-0.3-0.58-0.64-0.27-0.34-0.5-0.7-0.24-0.36-0.43-0.75c-0.56-1.1-0.88-2.31-0.95-3.55-0.07-1.23 0.11-2.47 0.54-3.63 0.43-1.16 1.09-2.22 1.95-3.11 0.86-0.9 1.89-1.6 3.03-2.08q0.69-0.29 1.41-0.5 0.72-0.22 1.46-0.36 0.73-0.14 1.48-0.2 0.75-0.06 1.5-0.05 0.79-0.01 1.57 0.06 0.78 0.07 1.55 0.22 0.78 0.14 1.53 0.37 0.75 0.22 1.48 0.52 0.66 0.27 1.28 0.61 0.62 0.34 1.2 0.74 0.58 0.41 1.11 0.88 0.53 0.47 1.01 0.99l-4.62 4.57q-0.32-0.34-0.66-0.64-0.34-0.31-0.71-0.59-0.36-0.28-0.75-0.53-0.39-0.25-0.8-0.46-0.39-0.18-0.8-0.32-0.4-0.14-0.82-0.23-0.42-0.09-0.85-0.13-0.43-0.05-0.86-0.04-0.38-0.02-0.77 0.01-0.38 0.04-0.75 0.13-0.37 0.09-0.73 0.23-0.36 0.14-0.69 0.33-0.26 0.15-0.47 0.37-0.2 0.22-0.35 0.48-0.14 0.27-0.21 0.56-0.07 0.29-0.06 0.59-0.01 0.28 0.03 0.55 0.05 0.28 0.15 0.54 0.11 0.26 0.27 0.49 0.16 0.23 0.36 0.42 0.24 0.21 0.49 0.39 0.26 0.19 0.53 0.35 0.27 0.16 0.55 0.3 0.29 0.14 0.58 0.25 1.35 0.54 2.95 1.08 1.61 0.55 3.19 1.27 0.39 0.18 0.77 0.39 0.38 0.2 0.75 0.43 0.36 0.23 0.72 0.48 0.35 0.26 0.68 0.53 0.34 0.29 0.65 0.61 0.31 0.32 0.58 0.68 0.27 0.35 0.5 0.73 0.23 0.39 0.42 0.79 0.22 0.49 0.38 1.01 0.16 0.51 0.27 1.04 0.1 0.53 0.14 1.06 0.05 0.54 0.03 1.08 0.05 1.03-0.15 2.04-0.19 1.01-0.62 1.94-0.42 0.94-1.06 1.75-0.63 0.81-1.43 1.45-3.27 2.59-9.01 2.59zm24.77-9.02v-6.07h16v6.07zm45.33 9.02q-0.85 0.01-1.7-0.07-0.84-0.07-1.68-0.23-0.83-0.16-1.65-0.4-0.81-0.23-1.6-0.55-1.5-0.6-2.84-1.48-1.35-0.89-2.5-2.02-1.14-1.13-2.04-2.47-0.9-1.33-1.52-2.82-0.63-1.55-0.95-3.19-0.32-1.64-0.32-3.31 0-1.67 0.32-3.31 0.32-1.64 0.95-3.19 0.3-0.74 0.68-1.44 0.38-0.7 0.82-1.36 0.45-0.66 0.95-1.27 0.51-0.61 1.08-1.17 0.57-0.56 1.2-1.06 0.62-0.49 1.29-0.93 0.67-0.44 1.38-0.8 0.71-0.37 1.45-0.67 1.61-0.61 3.3-0.92 1.69-0.31 3.4-0.31 1.72 0 3.41 0.31 1.69 0.31 3.3 0.92 0.72 0.29 1.41 0.65 0.69 0.36 1.34 0.78 0.66 0.42 1.27 0.9 0.61 0.48 1.17 1.02l-4.76 4.8q-0.32-0.34-0.68-0.65-0.35-0.3-0.74-0.57-0.39-0.27-0.8-0.5-0.41-0.23-0.84-0.41-0.49-0.2-1-0.35-0.51-0.15-1.03-0.25-0.52-0.09-1.05-0.14-0.53-0.04-1.06-0.03-0.49-0.01-0.98 0.03-0.49 0.05-0.97 0.13-0.48 0.09-0.95 0.23-0.47 0.13-0.93 0.31-0.42 0.17-0.83 0.38-0.4 0.2-0.78 0.46-0.38 0.25-0.73 0.54-0.34 0.29-0.66 0.62-0.32 0.34-0.6 0.72-0.29 0.37-0.53 0.77-0.25 0.4-0.45 0.82-0.21 0.42-0.37 0.86-0.35 0.99-0.52 2.02-0.18 1.03-0.18 2.08 0 1.05 0.18 2.08 0.17 1.03 0.52 2.02 0.16 0.44 0.37 0.86 0.2 0.42 0.45 0.82 0.24 0.4 0.53 0.77 0.28 0.38 0.6 0.72 0.32 0.32 0.67 0.61 0.35 0.3 0.73 0.55 0.37 0.25 0.78 0.46 0.4 0.21 0.82 0.38 0.45 0.19 0.93 0.33 0.47 0.14 0.95 0.23 0.48 0.09 0.97 0.13 0.49 0.05 0.98 0.04 0.55 0.01 1.09-0.03 0.54-0.04 1.08-0.14 0.54-0.1 1.06-0.25 0.52-0.15 1.03-0.35 0.44-0.18 0.86-0.41 0.42-0.23 0.81-0.5 0.39-0.26 0.76-0.57 0.36-0.31 0.69-0.65l4.8 4.8q-0.58 0.53-1.2 1.01-0.63 0.48-1.29 0.9-0.66 0.42-1.36 0.78-0.7 0.36-1.43 0.66-0.82 0.33-1.66 0.57-0.84 0.24-1.71 0.4-0.86 0.16-1.74 0.24-0.87 0.07-1.75 0.06zm28.9 0q-0.9 0.02-1.8-0.08-0.9-0.1-1.78-0.31-0.88-0.21-1.73-0.54-0.84-0.32-1.64-0.75-0.74-0.4-1.41-0.9-0.67-0.5-1.27-1.09-0.6-0.59-1.11-1.25-0.51-0.67-0.92-1.4-0.43-0.77-0.76-1.59-0.32-0.83-0.54-1.68-0.21-0.86-0.31-1.74-0.1-0.88-0.09-1.76v-19.39h7.16v19.8q-0.01 0.43 0.04 0.86 0.04 0.43 0.15 0.84 0.1 0.42 0.25 0.82 0.16 0.4 0.37 0.78 0.2 0.34 0.44 0.65 0.24 0.31 0.52 0.59 0.29 0.27 0.61 0.5 0.32 0.23 0.67 0.41 0.36 0.19 0.75 0.33 0.38 0.14 0.78 0.24 0.4 0.09 0.8 0.14 0.41 0.04 0.82 0.04 0.41 0.01 0.82-0.03 0.41-0.05 0.81-0.14 0.4-0.1 0.79-0.24 0.39-0.15 0.75-0.34 0.34-0.18 0.65-0.41 0.3-0.23 0.58-0.5 0.27-0.27 0.5-0.58 0.23-0.3 0.42-0.64 0.21-0.37 0.36-0.77 0.16-0.4 0.26-0.82 0.1-0.41 0.15-0.84 0.04-0.42 0.03-0.85v-19.84h7.15v19.43q0.02 0.88-0.08 1.76-0.1 0.87-0.31 1.73-0.22 0.85-0.54 1.67-0.32 0.82-0.75 1.59-0.41 0.73-0.91 1.39-0.51 0.66-1.1 1.24-0.59 0.59-1.26 1.09-0.66 0.5-1.39 0.9-0.79 0.43-1.64 0.75-0.84 0.33-1.72 0.54-0.87 0.21-1.77 0.31-0.9 0.1-1.8 0.08zm18.93-0.5v-32h7.11v32zm5.43-13.18v-5.25h6.74q0.44 0.03 0.89-0.03 0.44-0.06 0.86-0.2 0.42-0.14 0.81-0.35 0.39-0.22 0.73-0.51 0.55-0.59 0.84-1.34 0.3-0.75 0.3-1.56 0-0.81-0.3-1.56-0.29-0.75-0.84-1.34-0.33-0.3-0.71-0.52-0.39-0.23-0.81-0.37-0.42-0.15-0.86-0.21-0.44-0.06-0.88-0.03h-6.77v-5.53h7.6q0.72-0.02 1.44 0.05 0.72 0.07 1.42 0.22 0.7 0.15 1.39 0.39 0.68 0.23 1.33 0.54 0.57 0.28 1.1 0.63 0.53 0.35 1 0.78 0.48 0.42 0.89 0.9 0.42 0.49 0.76 1.02 0.67 1.11 1.01 2.36 0.35 1.25 0.35 2.55 0 1.29-0.35 2.54-0.34 1.25-1.01 2.36-0.35 0.53-0.77 1.01-0.41 0.48-0.9 0.9-0.48 0.42-1.01 0.76-0.54 0.34-1.12 0.61-0.67 0.31-1.38 0.54-0.7 0.23-1.43 0.38-0.72 0.15-1.46 0.21-0.74 0.07-1.48 0.05zm12 13.18l-10-13.77 6.52-1.77 11.87 15.54zm20.3 0.5q-0.87 0.02-1.73-0.05-0.87-0.07-1.72-0.23-0.86-0.17-1.69-0.42-0.83-0.25-1.63-0.59-0.74-0.35-1.44-0.77-0.7-0.43-1.36-0.92-0.65-0.5-1.25-1.05-0.6-0.56-1.14-1.18l4.62-4.58q0.36 0.42 0.75 0.8 0.4 0.39 0.83 0.73 0.43 0.35 0.89 0.65 0.46 0.3 0.95 0.56 0.51 0.26 1.04 0.45 0.53 0.19 1.08 0.32 0.56 0.12 1.12 0.18 0.56 0.06 1.13 0.05 0.46 0.03 0.91-0.01 0.46-0.04 0.9-0.14 0.45-0.11 0.88-0.28 0.42-0.16 0.82-0.39 0.29-0.17 0.53-0.42 0.23-0.24 0.4-0.54 0.16-0.3 0.25-0.63 0.08-0.33 0.07-0.67 0.01-0.29-0.04-0.58-0.05-0.29-0.15-0.57-0.11-0.27-0.27-0.52-0.15-0.25-0.36-0.46-0.23-0.22-0.49-0.42-0.25-0.2-0.52-0.38-0.27-0.18-0.56-0.33-0.28-0.15-0.58-0.27-1.33-0.59-2.95-1.14-1.61-0.54-3.19-1.24-0.39-0.17-0.77-0.37-0.38-0.2-0.75-0.42-0.36-0.22-0.71-0.47-0.36-0.24-0.69-0.51-0.34-0.27-0.64-0.58-0.31-0.3-0.58-0.64-0.27-0.34-0.5-0.7-0.24-0.36-0.43-0.75c-0.56-1.1-0.88-2.31-0.95-3.55-0.07-1.23 0.11-2.47 0.54-3.63 0.43-1.16 1.09-2.22 1.95-3.11 0.86-0.9 1.89-1.6 3.03-2.08q0.69-0.29 1.41-0.5 0.72-0.22 1.46-0.36 0.73-0.14 1.48-0.2 0.75-0.06 1.5-0.05 0.79-0.01 1.57 0.06 0.78 0.07 1.55 0.22 0.78 0.14 1.53 0.37 0.75 0.22 1.48 0.52 0.66 0.27 1.28 0.61 0.62 0.34 1.2 0.74 0.58 0.41 1.11 0.88 0.53 0.47 1.01 0.99l-4.62 4.57q-0.32-0.34-0.66-0.64-0.34-0.31-0.71-0.59-0.36-0.28-0.75-0.53-0.39-0.25-0.8-0.46-0.39-0.18-0.8-0.32-0.4-0.14-0.82-0.23-0.42-0.09-0.85-0.13-0.43-0.05-0.86-0.04-0.38-0.02-0.77 0.01-0.38 0.04-0.75 0.13-0.37 0.09-0.73 0.23-0.36 0.14-0.69 0.33-0.26 0.15-0.47 0.37-0.2 0.22-0.35 0.48-0.14 0.27-0.21 0.56-0.07 0.29-0.06 0.59-0.01 0.28 0.03 0.55 0.05 0.28 0.15 0.54 0.11 0.26 0.27 0.49 0.16 0.23 0.36 0.42 0.24 0.21 0.49 0.39 0.26 0.19 0.53 0.35 0.27 0.16 0.55 0.3 0.29 0.14 0.58 0.25 1.33 0.54 3 1.08c1.12 0.36 2.14 0.79 3.19 1.27q0.39 0.18 0.77 0.39 0.38 0.2 0.75 0.43 0.36 0.23 0.72 0.48 0.35 0.26 0.68 0.53 0.34 0.29 0.65 0.61 0.31 0.32 0.58 0.68 0.27 0.35 0.5 0.73 0.23 0.39 0.42 0.79 0.22 0.49 0.38 1.01 0.16 0.51 0.27 1.04 0.1 0.53 0.14 1.06 0.05 0.54 0.03 1.08 0.05 1.03-0.15 2.04-0.19 1.01-0.62 1.94-0.42 0.94-1.06 1.75-0.63 0.81-1.43 1.45-3.36 2.59-9.06 2.59zm32.33 0.04q-0.86 0.01-1.71-0.07-0.85-0.07-1.69-0.23-0.84-0.16-1.67-0.4-0.82-0.25-1.61-0.57-0.75-0.31-1.46-0.68-0.72-0.38-1.39-0.82-0.68-0.45-1.31-0.96-0.62-0.5-1.2-1.07-0.58-0.56-1.09-1.18-0.52-0.61-0.97-1.28-0.45-0.66-0.83-1.37-0.38-0.71-0.69-1.45-0.63-1.55-0.95-3.19-0.32-1.64-0.32-3.31 0-1.67 0.32-3.31 0.32-1.64 0.95-3.19 0.31-0.73 0.68-1.43 0.38-0.71 0.83-1.36 0.44-0.66 0.95-1.28 0.5-0.61 1.07-1.17 0.57-0.56 1.19-1.06 0.63-0.51 1.3-0.95 0.67-0.44 1.38-0.81 0.71-0.37 1.45-0.67 1.59-0.61 3.27-0.93 1.68-0.31 3.39-0.31 1.71 0 3.39 0.31 1.68 0.32 3.27 0.93 0.74 0.3 1.46 0.67 0.71 0.38 1.38 0.82 0.67 0.44 1.3 0.94 0.62 0.5 1.2 1.06 0.57 0.56 1.08 1.17 0.52 0.62 0.96 1.28 0.45 0.66 0.83 1.37 0.38 0.7 0.69 1.44 0.62 1.55 0.94 3.19 0.32 1.64 0.32 3.31 0 1.67-0.32 3.31-0.32 1.64-0.94 3.19-0.62 1.48-1.52 2.81-0.9 1.33-2.04 2.45-1.14 1.13-2.47 2.01-1.34 0.89-2.83 1.49-0.78 0.33-1.59 0.57-0.81 0.25-1.64 0.41-0.83 0.16-1.67 0.24-0.84 0.08-1.69 0.08zm-0.09-6.48q0.65 0.01 1.3-0.06 0.65-0.07 1.28-0.23 0.64-0.16 1.24-0.41 0.61-0.24 1.18-0.56 0.53-0.31 1.02-0.7 0.48-0.39 0.9-0.84 0.42-0.45 0.78-0.96 0.35-0.51 0.63-1.06 0.3-0.61 0.53-1.26 0.22-0.64 0.37-1.3 0.15-0.67 0.22-1.35 0.06-0.68 0.05-1.36 0.01-0.52-0.03-1.04-0.04-0.53-0.12-1.04-0.09-0.52-0.22-1.02-0.13-0.51-0.31-1-0.16-0.44-0.36-0.86-0.2-0.43-0.45-0.83-0.24-0.39-0.53-0.77-0.28-0.37-0.6-0.71-0.32-0.33-0.67-0.62-0.34-0.29-0.72-0.54-0.38-0.25-0.78-0.46-0.41-0.21-0.83-0.38-0.46-0.18-0.94-0.32-0.47-0.13-0.96-0.22-0.49-0.09-0.98-0.13-0.49-0.05-0.99-0.04-0.65-0.01-1.3 0.06-0.65 0.07-1.28 0.23-0.64 0.16-1.24 0.4-0.61 0.24-1.18 0.56-0.53 0.3-1.01 0.68-0.49 0.38-0.91 0.82-0.42 0.44-0.78 0.94-0.35 0.5-0.63 1.05-0.31 0.61-0.54 1.26-0.23 0.64-0.38 1.31-0.15 0.66-0.21 1.35-0.07 0.68-0.05 1.36-0.01 0.52 0.03 1.05 0.04 0.52 0.13 1.04 0.08 0.52 0.22 1.03 0.13 0.5 0.3 1 0.16 0.44 0.36 0.87 0.2 0.42 0.44 0.82 0.24 0.41 0.53 0.78 0.28 0.38 0.6 0.72 0.31 0.34 0.66 0.64 0.35 0.29 0.73 0.55 0.38 0.26 0.78 0.48 0.4 0.22 0.83 0.39 0.46 0.18 0.94 0.31 0.48 0.13 0.97 0.22 0.49 0.09 0.99 0.12 0.49 0.04 0.99 0.03zm30.21 6.44q-0.87 0.02-1.73-0.05-0.87-0.07-1.72-0.24-0.86-0.16-1.69-0.41-0.83-0.25-1.63-0.59-0.74-0.35-1.44-0.77-0.7-0.43-1.36-0.92-0.65-0.5-1.25-1.05-0.6-0.56-1.14-1.18l4.62-4.58q0.36 0.42 0.75 0.8 0.4 0.39 0.83 0.73 0.43 0.35 0.89 0.65 0.46 0.3 0.95 0.56 0.51 0.25 1.04 0.45 0.53 0.19 1.08 0.31 0.56 0.13 1.12 0.19 0.56 0.06 1.13 0.05 0.46 0.03 0.91-0.01 0.46-0.04 0.9-0.14 0.45-0.11 0.88-0.28 0.42-0.16 0.82-0.39 0.3-0.17 0.54-0.42 0.25-0.24 0.42-0.54 0.17-0.3 0.25-0.64 0.09-0.33 0.08-0.68 0.01-0.29-0.03-0.59-0.05-0.29-0.16-0.56-0.1-0.28-0.26-0.52-0.16-0.25-0.37-0.46-0.23-0.22-0.49-0.42-0.25-0.2-0.52-0.38-0.27-0.18-0.56-0.33-0.28-0.15-0.58-0.27-1.34-0.59-2.94-1.14-1.61-0.54-3.19-1.24-0.39-0.17-0.77-0.37-0.38-0.2-0.75-0.42-0.36-0.22-0.71-0.47-0.36-0.24-0.69-0.51-0.34-0.27-0.65-0.58-0.3-0.3-0.57-0.64-0.28-0.33-0.51-0.7-0.24-0.36-0.43-0.75c-0.56-1.1-0.88-2.31-0.95-3.54-0.07-1.23 0.11-2.46 0.54-3.62 0.42-1.16 1.08-2.22 1.93-3.11 0.86-0.89 1.88-1.6 3.02-2.08q0.69-0.29 1.41-0.5 0.72-0.22 1.45-0.36 0.74-0.14 1.48-0.2 0.75-0.06 1.5-0.05 0.79-0.01 1.57 0.06 0.79 0.07 1.56 0.22 0.77 0.14 1.53 0.37 0.75 0.22 1.48 0.52 0.66 0.27 1.28 0.61 0.62 0.34 1.2 0.74 0.58 0.41 1.11 0.88 0.53 0.47 1 0.99l-4.62 4.57q-0.32-0.34-0.66-0.64-0.34-0.31-0.71-0.59-0.36-0.28-0.75-0.53-0.39-0.25-0.8-0.46-0.39-0.18-0.8-0.32-0.4-0.14-0.82-0.23-0.42-0.09-0.85-0.13-0.43-0.05-0.86-0.04-0.38-0.02-0.76 0.02-0.39 0.03-0.76 0.12-0.37 0.09-0.73 0.23-0.36 0.14-0.69 0.33-0.26 0.15-0.47 0.37-0.2 0.22-0.35 0.48-0.14 0.27-0.21 0.56-0.07 0.29-0.06 0.59-0.01 0.28 0.03 0.56 0.05 0.27 0.16 0.53 0.1 0.26 0.26 0.49 0.16 0.23 0.37 0.42 0.24 0.21 0.49 0.39 0.26 0.19 0.53 0.35 0.27 0.16 0.55 0.3 0.28 0.14 0.58 0.25 1.34 0.54 2.94 1.08 1.61 0.55 3.2 1.27 0.39 0.18 0.77 0.39 0.38 0.2 0.75 0.43 0.36 0.23 0.71 0.48 0.36 0.26 0.69 0.53 0.34 0.29 0.65 0.61 0.31 0.32 0.58 0.68 0.27 0.35 0.5 0.73 0.23 0.39 0.42 0.79 0.22 0.49 0.38 1.01 0.15 0.51 0.26 1.04 0.1 0.53 0.14 1.07 0.05 0.53 0.03 1.07 0.05 1.03-0.15 2.04-0.19 1.01-0.62 1.94-0.42 0.94-1.05 1.75-0.64 0.81-1.44 1.45-3.25 2.59-9.01 2.59zm-618.43-90.85c-3-0.05-5.7 4.71-5.37 12 0.39 8.57 6.43 17.27 6.43 25.55 0 7.09-10.81 14.78-10.71 29.35 0.1 16.6 8.4 25.71 31.15 25.71 22.75 0 28.32-10.87 28.32-25 0-13-8.38-17.35-8.38-27.07 0-10.22 5.42-14.88 6.43-20.6 1.19-6.77-2.56-9.85-5.33-8.78-2.46 1-1.34 7.37-9.92 7.55-4.12 0.09-7.16-3.77-7.16-13.33 0-9.56-9.64-10.6-10.22-1.22-0.18 2.78-1.06 8.14-6.81 8.17-6.4 0.01-4.61-12.22-8.43-12.33z"/>
	<path class="s0" d="m24.62 124.69h10.65l-1.85-89.64h-6.96z"/>
	<path class="s0" d="m40.58 25.87q-0.21-2.16-0.26-4.33-0.06-2.16 0.04-4.33 0.09-2.17 0.34-4.32 0.24-2.16 0.64-4.29c1.67-8.41-0.47-13.15-5.12-2.27l-11.14 26.12c-0.44 1-1.17 1.46 0.31 3.55q0.2 0.25 0.37 0.53 0.17 0.28 0.29 0.58 0.13 0.29 0.21 0.61 0.09 0.31 0.13 0.63h7.09c0-1.18 1.37-4.32 3.87-6.42 1.54-1.3 3.39-4.22 3.23-6.06z"/>
	<path class="s0" d="m33.02 9.58l0.39-0.92 3.11 1.33-0.39 0.92z"/>
	<path class="s0" d="m32.97 10.63l-1.08-0.46c-0.85-0.76 0-2.71 1.13-2.63l1.07 0.46c0.47 0.6-0.37 2.56-1.12 2.63zm-1.76 3.17l0.4-0.92 3.1 1.33-0.39 0.92z"/>
	<path class="s0" d="m31.16 14.86l-1.08-0.47c-0.85-0.76 0-2.71 1.13-2.63l1.13 0.49c0.41 0.57-0.43 2.53-1.18 2.61zm-1.75 3.16l0.39-0.92 3.11 1.33-0.39 0.92z"/>
	<path class="s0" d="m29.34 19.08l-1.07-0.46c-0.85-0.76 0-2.72 1.12-2.63l1.08 0.46c0.48 0.59-0.36 2.55-1.13 2.63zm-1.75 3.16l0.4-0.92 3.1 1.33-0.39 0.92z"/>
	<path class="s0" d="m27.55 23.3l-1.08-0.46c-0.85-0.76 0-2.72 1.13-2.63l1.07 0.46c0.47 0.58-0.33 2.58-1.12 2.63zm-1.75 3.16l0.4-0.92 3.1 1.33-0.39 0.92z"/>
	<path class="s0" d="m25.74 27.52l-1.08-0.46c-0.85-0.76 0-2.72 1.13-2.63l1.08 0.46c0.47 0.59-0.38 2.56-1.13 2.63zm-1.75 3.16l0.39-0.92 3.11 1.33-0.39 0.92z"/>
	<path class="s0" d="m23.94 31.74l-1.08-0.49c-0.85-0.76 0-2.72 1.12-2.63l1.08 0.46c0.47 0.63-0.37 2.59-1.12 2.66z"/>
	<path id="CHUCK" class="s1" aria-label="CHUCK"  d="m487.7 84.9q-5.4-0.2-9.1 1.9-3.7 2.1-7.5 8-3.8 5.9-4.8 12.8-1 6.8 0.8 11.8 1.9 5 5 8.7 3.3 3.6 7.9 5.1 4.6 1.6 9-0.1 4.3-1.8 9.1-8.1l-1.5-1.5q-5 5.5-12.7 1.1-7.6-4.4-9.9-13.1-2.4-8.7 0-14.5 2.4-5.9 7.9-6 5.4-0.1 7.1 2.6 1.7 2.7 0.5 4.5l1.1 0.6 6.6-5.6q0.8-2.1-1.6-5.1-2.5-3-7.9-3.1zm42 0.1l-7.8 5q1 1.6 1.2 4.6l0.1 8.4h-10.1l-2.8 3.3 0.2-17.3q-0.5-2.8-2.5-4.2l-7.7 4.9q1 1.8 1.2 4.7-0.4 32.8 0.2 35.3 0.7 2.6 3.8 4.1l8.6-6.1-0.6-1.6q-1.9 0.6-2.7-1.5-0.8-2-0.5-16h12.6q-0.2 18.7 0.4 21.3 0.7 2.5 3.8 4.1l8.7-6.1-0.6-1.6q-2 0.5-2.7-1.5-0.8-2-0.4-35.5-0.5-2.9-2.4-4.3zm33.7 49.4l9.4-6.7-0.9-1.8q-2.9 2.4-2.8-7.8 0.4-23.1-0.1-26.7-0.5-3.5-3.4-6.1l-8 6v1.3q2.6-0.8 3.1 1.2 0.9 10.4 0.2 26.1-5.1 6.2-8.6 4.4-3.5-1.7-3.5-13 0.2-15.9 0-19.7-0.3-3.9-3.5-6.7l-7.9 6.3 0.2 1.3q2.7-0.7 3.1 1.5l0.1 22.1q-0.3 6.9 0.8 11.1 1.2 4.1 4.5 6.1 3.4 2 6.5-0.1 3.1-2 5.1-4.2 2-2.3 3-4-0.3 6.6 2.7 9.4zm32.9-49.5q-5.4-0.2-9.1 1.9-3.8 2.1-7.5 8-3.8 5.9-4.8 12.8-1 6.8 0.8 11.8 1.8 5 5 8.7 3.2 3.6 7.9 5.1 4.6 1.6 9-0.1 4.3-1.8 9.1-8.1l-1.5-1.5q-5 5.5-12.7 1.1-7.6-4.4-9.9-13.1-2.4-8.7 0-14.5 2.4-5.9 7.9-6 5.4-0.1 7.1 2.6 1.7 2.7 0.4 4.5l1.2 0.6 6.6-5.6q0.8-2.1-1.6-5.1-2.5-3-7.9-3.1zm38.6-0.1l-7.9 6.4q5 7.6-7.2 16.3l-0.6-17.3q-0.3-3.2-3.4-5.2l-7.7 6.4 0.2 0.9q1.8 0.5 2.3 4v30q0.3 3.7 2.3 5.7 2 1.9 3.3 1.9 7.1-4.7 7.5-4.8l-0.6-1.3q-3.3-0.1-3.4-3l-0.1-13.9q4.4-0.5 12.2 18.9 2.4 4.5 6.5 4.5l6-5.7-0.6-1.4q-3.6 0.6-7.6-9.8-4-10.4-9.1-12.1 13.9-11.6 7.9-20.5z"/>
</svg>